<?xml version="1.0" encoding="UTF-8"?>
<svg xmlns="http://www.w3.org/2000/svg" viewBox="0 0 1000 1250" width="1000" height="1250" role="img">
<defs>
  <linearGradient id="a80ff1427bg" x1="0" y1="0" x2="0.35" y2="1">
    <stop offset="0" stop-color="#FEFDFB"/>
    <stop offset="1" stop-color="#EFE9E0"/>
  </linearGradient>
  <radialGradient id="a80ff1427glow" cx="0.5" cy="0.32" r="0.62">
    <stop offset="0" stop-color="#FFFFFF" stop-opacity="0.95"/>
    <stop offset="1" stop-color="#FFFFFF" stop-opacity="0"/>
  </radialGradient>
  <linearGradient id="a80ff1427glass" x1="0" y1="0" x2="1" y2="0.2">
    <stop offset="0" stop-color="#F5EFE6"/>
    <stop offset="0.45" stop-color="#DFD3C2"/>
    <stop offset="1" stop-color="#A08C74"/>
  </linearGradient>
  <linearGradient id="a80ff1427floor" x1="0" y1="0" x2="0" y2="1">
    <stop offset="0" stop-color="#EFE9E0" stop-opacity="0"/>
    <stop offset="1" stop-color="#EFE9E0" stop-opacity="0.85"/>
  </linearGradient>
  <linearGradient id="a80ff1427gold" x1="0" y1="0" x2="1" y2="1">
    <stop offset="0.00" stop-color="#F0DDB4"/><stop offset="0.33" stop-color="#D9B979"/><stop offset="0.67" stop-color="#C8A96A"/><stop offset="1.00" stop-color="#A8834B"/>
  </linearGradient>
  <linearGradient id="a80ff1427spec" x1="0" y1="0" x2="1" y2="0">
    <stop offset="0" stop-color="#ffffff" stop-opacity="0"/>
    <stop offset="0.5" stop-color="#ffffff" stop-opacity="0.55"/>
    <stop offset="1" stop-color="#ffffff" stop-opacity="0"/>
  </linearGradient>
  <radialGradient id="a80ff1427shadow" cx="0.5" cy="0.5" r="0.5">
    <stop offset="0" stop-color="#A08C74" stop-opacity="0.42"/>
    <stop offset="1" stop-color="#A08C74" stop-opacity="0"/>
  </radialGradient>
  <filter id="a80ff1427blur" x="-30%" y="-60%" width="160%" height="220%">
    <feGaussianBlur stdDeviation="18"/>
  </filter>
</defs><rect x="0" y="0" width="1000" height="1250" fill="url(#a80ff1427bg)"/><rect x="0" y="0" width="1000" height="1250" fill="url(#a80ff1427glow)"/><circle cx="760.0" cy="250.0" r="216.0" fill="none" stroke="#B08A5A" stroke-width="1.3" opacity="0.22"/><circle cx="220.0" cy="162.5" r="130.0" fill="none" stroke="#B08A5A" stroke-width="1" opacity="0.14"/><rect x="0" y="986" width="1000" height="264" fill="url(#a80ff1427floor)"/><ellipse cx="500.0" cy="1084.0" rx="259.4" ry="33.7" fill="url(#a80ff1427shadow)"/><g>
  <path d="M384 528h232a16 16 0 0 1 16 16v478h-40v34H408v-34h-40V544a16 16 0 0 1 16-16z" fill="url(#a80ff1427glass)"/>
  <path d="M384 528h232a16 16 0 0 1 16 16v478h-40v34H408v-34h-40V544a16 16 0 0 1 16-16z" fill="none" stroke="#A08C74" stroke-width="1.6" opacity="0.42"/>
  <rect x="404" y="1046" width="192" height="80" rx="16" fill="url(#a80ff1427gold)"/>
  <rect x="404" y="1046" width="192" height="80" rx="16" fill="none" stroke="#8E6E3C" stroke-width="1" opacity="0.45"/>
  <rect x="404" y="1046" width="58" height="80" fill="#ffffff" opacity="0.2"/>
  <rect x="414" y="576" width="44" height="404" fill="url(#a80ff1427spec)" opacity="0.45"/>
  <rect x="406.0" y="676.0" width="188.0" height="208.0" rx="8" fill="#FDFBF7" opacity="0.93"/><rect x="414.0" y="684.0" width="172.0" height="192.0" rx="8" fill="none" stroke="#B08A5A" stroke-width="1.1" opacity="0.65"/><text x="500.0" y="767.5" text-anchor="middle" font-family="'Jost','Futura','Helvetica Neue',Helvetica,Arial,sans-serif" font-size="10.0" letter-spacing="0.6" fill="#3B322A">GEL DOUCHE MILKY</text><line x1="469.9" y1="792.5" x2="530.1" y2="792.5" stroke="#B08A5A" stroke-width="1" opacity="0.8"/><text x="500.0" y="838.2" text-anchor="middle" font-family="'Jost','Futura','Helvetica Neue',Helvetica,Arial,sans-serif" font-size="18" letter-spacing="4" fill="#3B322A" opacity="0.78">200 ML</text>
</g><text x="500.0" y="1188" text-anchor="middle" font-family="'Jost','Futura','Helvetica Neue',Helvetica,Arial,sans-serif" font-size="30.0" letter-spacing="0.6" fill="#6B5B49">GEL DOUCHE MILKY</text><text x="500.0" y="1222" text-anchor="middle" font-family="'Jost','Futura','Helvetica Neue',Helvetica,Arial,sans-serif" font-size="21.0" letter-spacing="7.0" fill="#9A8974">200 ML</text><line x1="440.0" y1="1154" x2="560.0" y2="1154" stroke="#C8A96A" stroke-width="1.2" opacity="0.75"/>
</svg>
