<?xml version="1.0" encoding="UTF-8"?>
<svg xmlns="http://www.w3.org/2000/svg" viewBox="0 0 1000 1250" width="1000" height="1250" role="img">
<defs>
  <linearGradient id="a1863143dbg" x1="0" y1="0" x2="0.35" y2="1">
    <stop offset="0" stop-color="#F7F1F6"/>
    <stop offset="1" stop-color="#E3D3E1"/>
  </linearGradient>
  <radialGradient id="a1863143dglow" cx="0.5" cy="0.32" r="0.62">
    <stop offset="0" stop-color="#FFFAFF" stop-opacity="0.95"/>
    <stop offset="1" stop-color="#FFFAFF" stop-opacity="0"/>
  </radialGradient>
  <linearGradient id="a1863143dglass" x1="0" y1="0" x2="1" y2="0.2">
    <stop offset="0" stop-color="#C9AECB"/>
    <stop offset="0.45" stop-color="#8E6A94"/>
    <stop offset="1" stop-color="#4A2F52"/>
  </linearGradient>
  <linearGradient id="a1863143dfloor" x1="0" y1="0" x2="0" y2="1">
    <stop offset="0" stop-color="#E3D3E1" stop-opacity="0"/>
    <stop offset="1" stop-color="#E3D3E1" stop-opacity="0.85"/>
  </linearGradient>
  <linearGradient id="a1863143dgold" x1="0" y1="0" x2="1" y2="1">
    <stop offset="0.00" stop-color="#F0DDB4"/><stop offset="0.33" stop-color="#D9B979"/><stop offset="0.67" stop-color="#C8A96A"/><stop offset="1.00" stop-color="#A8834B"/>
  </linearGradient>
  <linearGradient id="a1863143dspec" x1="0" y1="0" x2="1" y2="0">
    <stop offset="0" stop-color="#ffffff" stop-opacity="0"/>
    <stop offset="0.5" stop-color="#ffffff" stop-opacity="0.55"/>
    <stop offset="1" stop-color="#ffffff" stop-opacity="0"/>
  </linearGradient>
  <radialGradient id="a1863143dshadow" cx="0.5" cy="0.5" r="0.5">
    <stop offset="0" stop-color="#4A2F52" stop-opacity="0.42"/>
    <stop offset="1" stop-color="#4A2F52" stop-opacity="0"/>
  </radialGradient>
  <filter id="a1863143dblur" x="-30%" y="-60%" width="160%" height="220%">
    <feGaussianBlur stdDeviation="18"/>
  </filter>
</defs><rect x="0" y="0" width="1000" height="1250" fill="url(#a1863143dbg)"/><rect x="0" y="0" width="1000" height="1250" fill="url(#a1863143dglow)"/><circle cx="760.0" cy="250.0" r="216.0" fill="none" stroke="#C8A96A" stroke-width="1.3" opacity="0.22"/><circle cx="220.0" cy="162.5" r="130.0" fill="none" stroke="#C8A96A" stroke-width="1" opacity="0.14"/><rect x="0" y="986" width="1000" height="264" fill="url(#a1863143dfloor)"/><ellipse cx="500.0" cy="1084.0" rx="258.5" ry="33.6" fill="url(#a1863143dshadow)"/><g>
  <rect x="452" y="590" width="96" height="54" rx="10" fill="#4A2F52" opacity="0.9"/>
  <rect x="426" y="466" width="148" height="134" rx="14" fill="url(#a1863143dgold)"/>
  <rect x="426" y="466" width="148" height="134" rx="14" fill="none" stroke="#8E6E3C" stroke-width="1" opacity="0.45"/>
  <rect x="426" y="466" width="46" height="134" fill="#ffffff" opacity="0.2"/>
  <rect x="566" y="498" width="66" height="34" rx="9" fill="#2E2A26"/>
  <circle cx="650" cy="500" r="3.4" fill="#ffffff" opacity="0.5"/><circle cx="676" cy="486" r="2.6" fill="#ffffff" opacity="0.5"/><circle cx="700" cy="500" r="2.0" fill="#ffffff" opacity="0.5"/><circle cx="664" cy="462" r="1.6" fill="#ffffff" opacity="0.5"/><circle cx="694" cy="466" r="1.2" fill="#ffffff" opacity="0.5"/>
  <path d="M404 644h192a20 20 0 0 1 20 20v390a26 26 0 0 1-26 26H410a26 26 0 0 1-26-26V664a20 20 0 0 1 20-20z" fill="url(#a1863143dglass)"/>
  <path d="M404 644h192a20 20 0 0 1 20 20v390a26 26 0 0 1-26 26H410a26 26 0 0 1-26-26V664a20 20 0 0 1 20-20z" fill="none" stroke="#4A2F52" stroke-width="1.6" opacity="0.42"/>
  <rect x="424" y="676" width="46" height="344" fill="url(#a1863143dspec)" opacity="0.5"/>
  <rect x="424.0" y="800.0" width="152.0" height="156.0" rx="8" fill="#FDFBF7" opacity="0.93"/><rect x="432.0" y="808.0" width="136.0" height="140.0" rx="8" fill="none" stroke="#C8A96A" stroke-width="1.1" opacity="0.65"/><text x="500.0" y="868.6" text-anchor="middle" font-family="'Jost','Futura','Helvetica Neue',Helvetica,Arial,sans-serif" font-size="8.0" letter-spacing="0.4" fill="#2F1B36">MIDNIGHT AMBROSIA</text><line x1="475.7" y1="887.4" x2="524.3" y2="887.4" stroke="#C8A96A" stroke-width="1" opacity="0.8"/><text x="500.0" y="921.7" text-anchor="middle" font-family="'Jost','Futura','Helvetica Neue',Helvetica,Arial,sans-serif" font-size="18" letter-spacing="4" fill="#2F1B36" opacity="0.78">250 ML</text>
</g><text x="500.0" y="1188" text-anchor="middle" font-family="'Jost','Futura','Helvetica Neue',Helvetica,Arial,sans-serif" font-size="30.0" letter-spacing="0.6" fill="#6B5B49">MIDNIGHT AMBROSIA</text><text x="500.0" y="1222" text-anchor="middle" font-family="'Jost','Futura','Helvetica Neue',Helvetica,Arial,sans-serif" font-size="21.0" letter-spacing="7.0" fill="#9A8974">250 ML</text><line x1="440.0" y1="1154" x2="560.0" y2="1154" stroke="#C8A96A" stroke-width="1.2" opacity="0.75"/>
</svg>
