<?xml version="1.0" encoding="UTF-8"?>
<svg xmlns="http://www.w3.org/2000/svg" viewBox="0 0 1600 900" width="1600" height="900" role="img">
<defs>
  <linearGradient id="a31e7fa9cbg" x1="0" y1="0" x2="0.35" y2="1">
    <stop offset="0" stop-color="#F7F1F6"/>
    <stop offset="1" stop-color="#E3D3E1"/>
  </linearGradient>
  <radialGradient id="a31e7fa9cglow" cx="0.5" cy="0.32" r="0.62">
    <stop offset="0" stop-color="#FFFAFF" stop-opacity="0.95"/>
    <stop offset="1" stop-color="#FFFAFF" stop-opacity="0"/>
  </radialGradient>
  <linearGradient id="a31e7fa9cglass" x1="0" y1="0" x2="1" y2="0.2">
    <stop offset="0" stop-color="#C9AECB"/>
    <stop offset="0.45" stop-color="#8E6A94"/>
    <stop offset="1" stop-color="#4A2F52"/>
  </linearGradient>
  <linearGradient id="a31e7fa9cfloor" x1="0" y1="0" x2="0" y2="1">
    <stop offset="0" stop-color="#E3D3E1" stop-opacity="0"/>
    <stop offset="1" stop-color="#E3D3E1" stop-opacity="0.85"/>
  </linearGradient>
  <linearGradient id="a31e7fa9cgold" x1="0" y1="0" x2="1" y2="1">
    <stop offset="0.00" stop-color="#F0DDB4"/><stop offset="0.33" stop-color="#D9B979"/><stop offset="0.67" stop-color="#C8A96A"/><stop offset="1.00" stop-color="#A8834B"/>
  </linearGradient>
  <linearGradient id="a31e7fa9cspec" x1="0" y1="0" x2="1" y2="0">
    <stop offset="0" stop-color="#ffffff" stop-opacity="0"/>
    <stop offset="0.5" stop-color="#ffffff" stop-opacity="0.55"/>
    <stop offset="1" stop-color="#ffffff" stop-opacity="0"/>
  </linearGradient>
  <radialGradient id="a31e7fa9cshadow" cx="0.5" cy="0.5" r="0.5">
    <stop offset="0" stop-color="#4A2F52" stop-opacity="0.42"/>
    <stop offset="1" stop-color="#4A2F52" stop-opacity="0"/>
  </radialGradient>
  <filter id="a31e7fa9cblur" x="-30%" y="-60%" width="160%" height="220%">
    <feGaussianBlur stdDeviation="18"/>
  </filter>
</defs><defs>
  <linearGradient id="a97741153bg" x1="0" y1="0" x2="0.35" y2="1">
    <stop offset="0" stop-color="#F7F1F6"/>
    <stop offset="1" stop-color="#E3D3E1"/>
  </linearGradient>
  <radialGradient id="a97741153glow" cx="0.5" cy="0.32" r="0.62">
    <stop offset="0" stop-color="#FFFAFF" stop-opacity="0.95"/>
    <stop offset="1" stop-color="#FFFAFF" stop-opacity="0"/>
  </radialGradient>
  <linearGradient id="a97741153glass" x1="0" y1="0" x2="1" y2="0.2">
    <stop offset="0" stop-color="#C9AECB"/>
    <stop offset="0.45" stop-color="#8E6A94"/>
    <stop offset="1" stop-color="#4A2F52"/>
  </linearGradient>
  <linearGradient id="a97741153floor" x1="0" y1="0" x2="0" y2="1">
    <stop offset="0" stop-color="#E3D3E1" stop-opacity="0"/>
    <stop offset="1" stop-color="#E3D3E1" stop-opacity="0.85"/>
  </linearGradient>
  <linearGradient id="a97741153gold" x1="0" y1="0" x2="1" y2="1">
    <stop offset="0.00" stop-color="#F0DDB4"/><stop offset="0.33" stop-color="#D9B979"/><stop offset="0.67" stop-color="#C8A96A"/><stop offset="1.00" stop-color="#A8834B"/>
  </linearGradient>
  <linearGradient id="a97741153spec" x1="0" y1="0" x2="1" y2="0">
    <stop offset="0" stop-color="#ffffff" stop-opacity="0"/>
    <stop offset="0.5" stop-color="#ffffff" stop-opacity="0.55"/>
    <stop offset="1" stop-color="#ffffff" stop-opacity="0"/>
  </linearGradient>
  <radialGradient id="a97741153shadow" cx="0.5" cy="0.5" r="0.5">
    <stop offset="0" stop-color="#4A2F52" stop-opacity="0.42"/>
    <stop offset="1" stop-color="#4A2F52" stop-opacity="0"/>
  </radialGradient>
  <filter id="a97741153blur" x="-30%" y="-60%" width="160%" height="220%">
    <feGaussianBlur stdDeviation="18"/>
  </filter>
</defs><rect x="0" y="0" width="1600" height="900" fill="url(#a31e7fa9cbg)"/><rect x="0" y="0" width="1600" height="900" fill="url(#a31e7fa9cglow)"/><circle cx="1216.0" cy="180.0" r="162.0" fill="none" stroke="#C8A96A" stroke-width="1.3" opacity="0.22"/><circle cx="352.0" cy="117.0" r="93.6" fill="none" stroke="#C8A96A" stroke-width="1" opacity="0.14"/><line x1="0" y1="693.0" x2="1600" y2="693.0" stroke="#C8A96A" stroke-width="1" opacity="0.18"/><rect x="0" y="693" width="1600" height="207" fill="url(#a31e7fa9cfloor)"/><g opacity="1.00" transform="translate(221.4,-403.7) scale(1.157)"><g>
  <path d="M688 522l118 46v472l-118 44z" fill="#4A2F52" opacity="0.92"/>
  <rect x="290" y="522" width="398" height="562" rx="8" fill="url(#a97741153glass)"/>
  <rect x="290" y="522" width="398" height="562" rx="8" fill="none" stroke="#4A2F52" stroke-width="1.6" opacity="0.4"/>
  <rect x="290" y="522" width="398" height="562" rx="8" fill="none" stroke="#ffffff" stroke-width="1" opacity="0.25"/>
  <rect x="290" y="522" width="120" height="562" fill="#ffffff" opacity="0.14"/>
  <rect x="452" y="522" width="74" height="562" fill="url(#a97741153gold)" opacity="0.95"/>
  <path d="M452 522h74l-96-38h-74z" fill="#E7D3A6" opacity="0.9"/>
  <path d="M526 522h74l96-38h-74z" fill="#C7A97F" opacity="0.9"/>
  <rect x="330.0" y="700.0" width="318.0" height="196.0" rx="8" fill="#FDFBF7" opacity="0.93"/><rect x="338.0" y="708.0" width="302.0" height="180.0" rx="8" fill="none" stroke="#C8A96A" stroke-width="1.1" opacity="0.65"/><text x="489.0" y="786.2" text-anchor="middle" font-family="'Jost','Futura','Helvetica Neue',Helvetica,Arial,sans-serif" font-size="27.0" letter-spacing="6.0" fill="#2F1B36">CADEAUX</text><line x1="438.1" y1="809.8" x2="539.9" y2="809.8" stroke="#C8A96A" stroke-width="1" opacity="0.8"/>
</g></g>
</svg>
