<?xml version="1.0" encoding="UTF-8"?>
<svg xmlns="http://www.w3.org/2000/svg" viewBox="0 0 1200 900" width="1200" height="900" role="img">
<defs>
  <linearGradient id="a85e768c3bg" x1="0" y1="0" x2="0.35" y2="1">
    <stop offset="0" stop-color="#FEFDFB"/>
    <stop offset="1" stop-color="#EFE9E0"/>
  </linearGradient>
  <radialGradient id="a85e768c3glow" cx="0.5" cy="0.32" r="0.62">
    <stop offset="0" stop-color="#FFFFFF" stop-opacity="0.95"/>
    <stop offset="1" stop-color="#FFFFFF" stop-opacity="0"/>
  </radialGradient>
  <linearGradient id="a85e768c3glass" x1="0" y1="0" x2="1" y2="0.2">
    <stop offset="0" stop-color="#F5EFE6"/>
    <stop offset="0.45" stop-color="#DFD3C2"/>
    <stop offset="1" stop-color="#A08C74"/>
  </linearGradient>
  <linearGradient id="a85e768c3floor" x1="0" y1="0" x2="0" y2="1">
    <stop offset="0" stop-color="#EFE9E0" stop-opacity="0"/>
    <stop offset="1" stop-color="#EFE9E0" stop-opacity="0.85"/>
  </linearGradient>
  <linearGradient id="a85e768c3gold" x1="0" y1="0" x2="1" y2="1">
    <stop offset="0.00" stop-color="#F0DDB4"/><stop offset="0.33" stop-color="#D9B979"/><stop offset="0.67" stop-color="#C8A96A"/><stop offset="1.00" stop-color="#A8834B"/>
  </linearGradient>
  <linearGradient id="a85e768c3spec" x1="0" y1="0" x2="1" y2="0">
    <stop offset="0" stop-color="#ffffff" stop-opacity="0"/>
    <stop offset="0.5" stop-color="#ffffff" stop-opacity="0.55"/>
    <stop offset="1" stop-color="#ffffff" stop-opacity="0"/>
  </linearGradient>
  <radialGradient id="a85e768c3shadow" cx="0.5" cy="0.5" r="0.5">
    <stop offset="0" stop-color="#A08C74" stop-opacity="0.42"/>
    <stop offset="1" stop-color="#A08C74" stop-opacity="0"/>
  </radialGradient>
  <filter id="a85e768c3blur" x="-30%" y="-60%" width="160%" height="220%">
    <feGaussianBlur stdDeviation="18"/>
  </filter>
</defs><defs>
  <linearGradient id="ad0f4c74cbg" x1="0" y1="0" x2="0.35" y2="1">
    <stop offset="0" stop-color="#F6F1EA"/>
    <stop offset="1" stop-color="#E2D5C6"/>
  </linearGradient>
  <radialGradient id="ad0f4c74cglow" cx="0.5" cy="0.32" r="0.62">
    <stop offset="0" stop-color="#FFFBF6" stop-opacity="0.95"/>
    <stop offset="1" stop-color="#FFFBF6" stop-opacity="0"/>
  </radialGradient>
  <linearGradient id="ad0f4c74cglass" x1="0" y1="0" x2="1" y2="0.2">
    <stop offset="0" stop-color="#B99C82"/>
    <stop offset="0.45" stop-color="#7E5A44"/>
    <stop offset="1" stop-color="#3E2A1E"/>
  </linearGradient>
  <linearGradient id="ad0f4c74cfloor" x1="0" y1="0" x2="0" y2="1">
    <stop offset="0" stop-color="#E2D5C6" stop-opacity="0"/>
    <stop offset="1" stop-color="#E2D5C6" stop-opacity="0.85"/>
  </linearGradient>
  <linearGradient id="ad0f4c74cgold" x1="0" y1="0" x2="1" y2="1">
    <stop offset="0.00" stop-color="#F0DDB4"/><stop offset="0.33" stop-color="#D9B979"/><stop offset="0.67" stop-color="#C8A96A"/><stop offset="1.00" stop-color="#A8834B"/>
  </linearGradient>
  <linearGradient id="ad0f4c74cspec" x1="0" y1="0" x2="1" y2="0">
    <stop offset="0" stop-color="#ffffff" stop-opacity="0"/>
    <stop offset="0.5" stop-color="#ffffff" stop-opacity="0.55"/>
    <stop offset="1" stop-color="#ffffff" stop-opacity="0"/>
  </linearGradient>
  <radialGradient id="ad0f4c74cshadow" cx="0.5" cy="0.5" r="0.5">
    <stop offset="0" stop-color="#3E2A1E" stop-opacity="0.42"/>
    <stop offset="1" stop-color="#3E2A1E" stop-opacity="0"/>
  </radialGradient>
  <filter id="ad0f4c74cblur" x="-30%" y="-60%" width="160%" height="220%">
    <feGaussianBlur stdDeviation="18"/>
  </filter>
</defs><defs>
  <linearGradient id="ac176d237bg" x1="0" y1="0" x2="0.35" y2="1">
    <stop offset="0" stop-color="#FEFDFB"/>
    <stop offset="1" stop-color="#EFE9E0"/>
  </linearGradient>
  <radialGradient id="ac176d237glow" cx="0.5" cy="0.32" r="0.62">
    <stop offset="0" stop-color="#FFFFFF" stop-opacity="0.95"/>
    <stop offset="1" stop-color="#FFFFFF" stop-opacity="0"/>
  </radialGradient>
  <linearGradient id="ac176d237glass" x1="0" y1="0" x2="1" y2="0.2">
    <stop offset="0" stop-color="#F5EFE6"/>
    <stop offset="0.45" stop-color="#DFD3C2"/>
    <stop offset="1" stop-color="#A08C74"/>
  </linearGradient>
  <linearGradient id="ac176d237floor" x1="0" y1="0" x2="0" y2="1">
    <stop offset="0" stop-color="#EFE9E0" stop-opacity="0"/>
    <stop offset="1" stop-color="#EFE9E0" stop-opacity="0.85"/>
  </linearGradient>
  <linearGradient id="ac176d237gold" x1="0" y1="0" x2="1" y2="1">
    <stop offset="0.00" stop-color="#F0DDB4"/><stop offset="0.33" stop-color="#D9B979"/><stop offset="0.67" stop-color="#C8A96A"/><stop offset="1.00" stop-color="#A8834B"/>
  </linearGradient>
  <linearGradient id="ac176d237spec" x1="0" y1="0" x2="1" y2="0">
    <stop offset="0" stop-color="#ffffff" stop-opacity="0"/>
    <stop offset="0.5" stop-color="#ffffff" stop-opacity="0.55"/>
    <stop offset="1" stop-color="#ffffff" stop-opacity="0"/>
  </linearGradient>
  <radialGradient id="ac176d237shadow" cx="0.5" cy="0.5" r="0.5">
    <stop offset="0" stop-color="#A08C74" stop-opacity="0.42"/>
    <stop offset="1" stop-color="#A08C74" stop-opacity="0"/>
  </radialGradient>
  <filter id="ac176d237blur" x="-30%" y="-60%" width="160%" height="220%">
    <feGaussianBlur stdDeviation="18"/>
  </filter>
</defs><rect x="0" y="0" width="1200" height="900" fill="url(#a85e768c3bg)"/><rect x="0" y="0" width="1200" height="900" fill="url(#a85e768c3glow)"/><circle cx="912.0" cy="180.0" r="162.0" fill="none" stroke="#B08A5A" stroke-width="1.3" opacity="0.22"/><circle cx="264.0" cy="117.0" r="93.6" fill="none" stroke="#B08A5A" stroke-width="1" opacity="0.14"/><line x1="0" y1="649.0" x2="1200" y2="649.0" stroke="#B08A5A" stroke-width="1" opacity="0.18"/><rect x="0" y="649" width="1200" height="251" fill="url(#a85e768c3floor)"/><g opacity="1.00" transform="translate(-10.0,-17.3) scale(0.720)"><g>
  <path d="M384 528h232a16 16 0 0 1 16 16v478h-40v34H408v-34h-40V544a16 16 0 0 1 16-16z" fill="url(#ad0f4c74cglass)"/>
  <path d="M384 528h232a16 16 0 0 1 16 16v478h-40v34H408v-34h-40V544a16 16 0 0 1 16-16z" fill="none" stroke="#3E2A1E" stroke-width="1.6" opacity="0.42"/>
  <rect x="404" y="1046" width="192" height="80" rx="16" fill="url(#ad0f4c74cgold)"/>
  <rect x="404" y="1046" width="192" height="80" rx="16" fill="none" stroke="#8E6E3C" stroke-width="1" opacity="0.45"/>
  <rect x="404" y="1046" width="58" height="80" fill="#ffffff" opacity="0.2"/>
  <rect x="414" y="576" width="44" height="404" fill="url(#ad0f4c74cspec)" opacity="0.45"/>
  <rect x="406.0" y="676.0" width="188.0" height="208.0" rx="8" fill="#FDFBF7" opacity="0.93"/><rect x="414.0" y="684.0" width="172.0" height="192.0" rx="8" fill="none" stroke="#C8A96A" stroke-width="1.1" opacity="0.65"/><text x="500.0" y="767.5" text-anchor="middle" font-family="'Jost','Futura','Helvetica Neue',Helvetica,Arial,sans-serif" font-size="16.0" letter-spacing="0.6" fill="#2A1A12">SHOWER GEL</text><line x1="469.9" y1="792.5" x2="530.1" y2="792.5" stroke="#C8A96A" stroke-width="1" opacity="0.8"/><text x="500.0" y="838.2" text-anchor="middle" font-family="'Jost','Futura','Helvetica Neue',Helvetica,Arial,sans-serif" font-size="18" letter-spacing="4" fill="#2A1A12" opacity="0.78">200 ML</text>
</g></g><g opacity="1.00" transform="translate(410.0,38.8) scale(0.700)"><g>
  <rect x="452" y="590" width="96" height="54" rx="10" fill="#A08C74" opacity="0.9"/>
  <rect x="426" y="466" width="148" height="134" rx="14" fill="url(#ac176d237gold)"/>
  <rect x="426" y="466" width="148" height="134" rx="14" fill="none" stroke="#8E6E3C" stroke-width="1" opacity="0.45"/>
  <rect x="426" y="466" width="46" height="134" fill="#ffffff" opacity="0.2"/>
  <rect x="566" y="498" width="66" height="34" rx="9" fill="#2E2A26"/>
  <circle cx="650" cy="500" r="3.4" fill="#ffffff" opacity="0.5"/><circle cx="676" cy="486" r="2.6" fill="#ffffff" opacity="0.5"/><circle cx="700" cy="500" r="2.0" fill="#ffffff" opacity="0.5"/><circle cx="664" cy="462" r="1.6" fill="#ffffff" opacity="0.5"/><circle cx="694" cy="466" r="1.2" fill="#ffffff" opacity="0.5"/>
  <path d="M404 644h192a20 20 0 0 1 20 20v390a26 26 0 0 1-26 26H410a26 26 0 0 1-26-26V664a20 20 0 0 1 20-20z" fill="url(#ac176d237glass)"/>
  <path d="M404 644h192a20 20 0 0 1 20 20v390a26 26 0 0 1-26 26H410a26 26 0 0 1-26-26V664a20 20 0 0 1 20-20z" fill="none" stroke="#A08C74" stroke-width="1.6" opacity="0.42"/>
  <rect x="424" y="676" width="46" height="344" fill="url(#ac176d237spec)" opacity="0.5"/>
  <rect x="424.0" y="800.0" width="152.0" height="156.0" rx="8" fill="#FDFBF7" opacity="0.93"/><rect x="432.0" y="808.0" width="136.0" height="140.0" rx="8" fill="none" stroke="#B08A5A" stroke-width="1.1" opacity="0.65"/><text x="500.0" y="868.6" text-anchor="middle" font-family="'Jost','Futura','Helvetica Neue',Helvetica,Arial,sans-serif" font-size="27.0" letter-spacing="6.0" fill="#3B322A">BATH</text><line x1="475.7" y1="887.4" x2="524.3" y2="887.4" stroke="#B08A5A" stroke-width="1" opacity="0.8"/><text x="500.0" y="921.7" text-anchor="middle" font-family="'Jost','Futura','Helvetica Neue',Helvetica,Arial,sans-serif" font-size="18" letter-spacing="4" fill="#3B322A" opacity="0.78">250 ML</text>
</g></g><text x="600" y="862" text-anchor="middle" font-family="'Jost','Futura','Helvetica Neue',Helvetica,Arial,sans-serif" font-size="19" letter-spacing="9" fill="#8A7A64">CHAMMA PERFUMES</text>
</svg>
